0 FILE l_palm.ldr
0 Palm tree: as built in set 6376 Breezeway Cafe (OMR, CCAL 2.0): base 2563, 5 trunk 2536, top 2566, 4 leaves 2518
0 !LICENSE Redistributable under CCAL version 2.0 : see CAreadme.txt
1 6 -240 -160 120 1 0 0 0 1 0 0 0 1 2563.dat
1 6 -240 -191 120 1 0 0 0 1 0 0 0 1 2536.dat
1 6 -240 -221 120 1 0 0 0 1 0 0 0 1 2536.dat
1 6 -240 -251 120 1 0 0 0 1 0 0 0 1 2536.dat
1 6 -240 -281 120 1 0 0 0 1 0 0 0 1 2536.dat
1 6 -240 -311 120 1 0 0 0 1 0 0 0 1 2536.dat
1 6 -240 -351 120 0.707 0 -0.707 0 1 0 0.707 0 0.707 2566.dat
1 2 -232.929 -363 112.929 0.707 0 -0.707 0 1 0 0.707 0 0.707 2518.dat
1 2 -247.071 -363 127.071 -0.707 0 0.707 0 1 0 -0.707 0 -0.707 2518.dat
1 2 -247.071 -371 112.929 0.707 0 0.707 0 1 0 -0.707 0 0.707 2518.dat
1 2 -232.929 -371 127.071 -0.707 0 -0.707 0 1 0 0.707 0 -0.707 2518.dat
